<svg width="320" height="6" viewBox="0 0 320 6" fill="none" xmlns="http://www.w3.org/2000/svg">
<path d="M320 5.99998C317.496 5.99998 316.188 4.80753 315.13 3.84838C314.184 2.99293 313.489 2.37078 312.014 2.37078C310.511 2.37078 309.843 2.99293 308.897 3.84838C307.84 4.80753 306.532 5.99998 304.028 5.99998C301.523 5.99998 300.216 4.80753 299.158 3.84838C298.212 2.99293 297.517 2.37078 296.042 2.37078C294.567 2.37078 293.871 2.99293 292.925 3.84838C291.868 4.80753 290.56 5.99998 288.056 5.99998C285.551 5.99998 284.243 4.80753 283.186 3.84838C282.24 2.99293 281.544 2.37078 280.07 2.37078C278.567 2.37078 277.899 2.99293 276.953 3.84838C275.896 4.80753 274.588 5.99998 272.083 5.99998C269.579 5.99998 268.271 4.80753 267.214 3.84838C266.268 2.99293 265.572 2.37078 264.097 2.37078C262.595 2.37078 261.927 2.99293 260.981 3.84838C259.812 4.80753 258.504 5.99998 256 5.99998C253.496 5.99998 252.188 4.80753 251.13 3.84838C250.184 2.99293 249.489 2.37078 248.014 2.37078C246.511 2.37078 245.843 2.99293 244.897 3.84838C243.84 4.80753 242.532 5.99998 240.028 5.99998C237.523 5.99998 236.216 4.80753 235.158 3.84838C234.212 2.99293 233.517 2.37078 232.042 2.37078C230.539 2.37078 229.871 2.99293 228.925 3.84838C227.812 4.80753 226.504 5.99998 224 5.99998C221.496 5.99998 220.188 4.80753 219.13 3.84838C218.184 2.99293 217.489 2.37078 216.014 2.37078C214.511 2.37078 213.843 2.99293 212.897 3.84838C211.84 4.80753 210.532 5.99998 208.028 5.99998C205.523 5.99998 204.216 4.80753 203.158 3.84838C202.212 2.99293 201.517 2.37078 200.042 2.37078C198.567 2.37078 197.871 2.99293 196.925 3.84838C195.84 4.80753 194.504 5.99998 192 5.99998C189.496 5.99998 188.188 4.80753 187.13 3.84838C186.184 2.99293 185.489 2.37078 184.014 2.37078C182.511 2.37078 181.843 2.99293 180.897 3.84838C179.84 4.80753 178.532 5.99998 176.028 5.99998C173.523 5.99998 172.216 4.80753 171.158 3.84838C170.212 2.99293 169.517 2.37078 168.042 2.37078C166.539 2.37078 165.871 2.99293 164.925 3.84838C163.868 4.80753 162.56 5.99998 160.056 5.99998C157.551 5.99998 156.243 4.80753 155.186 3.84838C154.24 2.99293 153.544 2.37078 152.07 2.37078C150.595 2.37078 149.899 2.99293 148.953 3.84838C147.896 4.80753 146.588 5.99998 144.083 5.99998C141.579 5.99998 140.271 4.80753 139.214 3.84838C138.268 2.99293 137.572 2.37078 136.097 2.37078C134.595 2.37078 133.927 2.99293 132.981 3.84838C131.923 4.80753 130.616 5.99998 128.111 5.99998C125.607 5.99998 124.299 4.80753 123.242 3.84838C122.296 2.99293 121.6 2.37078 120.125 2.37078C118.623 2.37078 117.955 2.99293 117.009 3.84838C115.951 4.80753 114.643 5.99998 112.139 5.99998C109.635 5.99998 108.327 4.80753 107.27 3.84838C106.323 2.99293 105.628 2.37078 104.153 2.37078C102.65 2.37078 101.983 2.99293 101.037 3.84838C99.9791 4.80753 98.6713 5.99998 96.167 5.99998C93.6626 5.99998 92.3548 4.80753 91.2974 3.84838C90.3513 2.99293 89.6556 2.37078 88.1809 2.37078C86.7061 2.37078 86.0104 2.99293 85.0643 3.84838C84.007 4.80753 82.6991 5.99998 80.1948 5.99998C77.6904 5.99998 76.3826 4.80753 75.3252 3.84838C74.3791 2.99293 73.6835 2.37078 72.2087 2.37078C70.7061 2.37078 70.0383 2.99293 69.0922 3.84838C68.0348 4.80753 66.727 5.99998 64.2226 5.99998C61.7183 5.99998 60.4104 4.80753 59.353 3.84838C58.407 2.99293 57.7113 2.37078 56.2365 2.37078C54.7339 2.37078 54.0661 2.99293 53.12 3.84838C52.0626 4.80753 50.7548 5.99998 48.2504 5.99998C45.7461 5.99998 44.4383 4.80753 43.3809 3.84838C42.4348 2.99293 41.7391 2.37078 40.2643 2.37078C38.7617 2.37078 38.0939 2.99293 37.1478 3.84838C35.84 4.80753 34.5043 5.99998 32 5.99998C29.4957 5.99998 28.1878 4.80753 27.1304 3.84838C26.1843 2.99293 25.4887 2.37078 24.0139 2.37078C22.5113 2.37078 21.8435 2.99293 20.8974 3.84838C19.84 4.80753 18.5322 5.99998 16.0278 5.99998C13.5235 5.99998 12.2157 4.80753 11.1583 3.84838C10.1843 2.99293 9.4887 2.37078 8.01391 2.37078C6.5113 2.37078 5.84348 2.99293 4.89739 3.84838C3.81217 4.80753 2.50435 5.99998 0 5.99998V3.66692C1.50261 3.66692 2.17043 3.04477 3.11652 2.18932C4.17391 1.23017 5.48174 0.0377197 8.01391 0.0377197C10.5183 0.0377197 11.8261 1.23017 12.8835 2.18932C13.8296 3.04477 14.5252 3.66692 16 3.66692C17.5026 3.66692 18.1704 3.04477 19.1165 2.18932C20.1739 1.23017 21.5096 0.0377197 24.0139 0.0377197C26.5183 0.0377197 27.8261 1.23017 28.8835 2.18932C29.8296 3.04477 30.5252 3.66692 32 3.66692C33.5026 3.66692 34.1704 3.04477 35.1165 2.18932C36.1739 1.23017 37.4817 0.0377197 39.9861 0.0377197C42.4904 0.0377197 43.7983 1.23017 44.8556 2.18932C45.8017 3.04477 46.4974 3.66692 47.9722 3.66692C49.4748 3.66692 50.1426 3.04477 51.0887 2.18932C52.1461 1.23017 53.4539 0.0377197 55.9583 0.0377197C58.4626 0.0377197 59.7704 1.23017 60.8278 2.18932C61.7739 3.04477 62.4696 3.66692 63.9443 3.66692C65.447 3.66692 66.1148 3.04477 67.0609 2.18932C68.1183 1.23017 69.4261 0.0377197 71.9304 0.0377197C74.4348 0.0377197 75.7426 1.23017 76.8 2.18932C77.7461 3.04477 78.4417 3.66692 79.9165 3.66692C81.4191 3.66692 82.087 3.04477 83.033 2.18932C84.0904 1.23017 85.3983 0.0377197 87.9026 0.0377197C90.407 0.0377197 91.7148 1.23017 92.7722 2.18932C93.7183 3.04477 94.4139 3.66692 95.8887 3.66692C97.3913 3.66692 98.0591 3.04477 99.0052 2.18932C100.063 1.23017 101.37 0.0377197 103.875 0.0377197C106.379 0.0377197 107.687 1.23017 108.744 2.18932C109.69 3.04477 110.386 3.66692 111.861 3.66692C113.336 3.66692 114.031 3.04477 114.977 2.18932C116.035 1.23017 117.343 0.0377197 119.847 0.0377197C122.351 0.0377197 123.659 1.23017 124.717 2.18932C125.663 3.04477 126.358 3.66692 127.833 3.66692C129.336 3.66692 130.003 3.04477 130.95 2.18932C132.007 1.23017 133.315 0.0377197 135.819 0.0377197C138.323 0.0377197 139.631 1.23017 140.689 2.18932C141.635 3.04477 142.33 3.66692 143.805 3.66692C145.308 3.66692 145.976 3.04477 146.922 2.18932C147.979 1.23017 149.287 0.0377197 151.791 0.0377197C154.296 0.0377197 155.603 1.23017 156.661 2.18932C157.607 3.04477 158.303 3.66692 159.777 3.66692C161.28 3.66692 161.948 3.04477 162.894 2.18932C163.951 1.23017 165.259 0.0377197 167.763 0.0377197C170.268 0.0377197 171.576 1.23017 172.633 2.18932C173.579 3.04477 174.275 3.66692 175.75 3.66692C177.252 3.66692 177.92 3.04477 178.866 2.18932C179.923 1.23017 181.231 0.0377197 183.736 0.0377197C186.24 0.0377197 187.548 1.23017 188.605 2.18932C189.551 3.04477 190.247 3.66692 191.722 3.66692C193.224 3.66692 193.892 3.04477 194.838 2.18932C195.896 1.23017 197.203 0.0377197 199.708 0.0377197C202.212 0.0377197 203.52 1.23017 204.577 2.18932C205.523 3.04477 206.219 3.66692 207.694 3.66692C209.197 3.66692 209.864 3.04477 210.81 2.18932C211.868 1.23017 213.176 0.0377197 215.68 0.0377197C218.184 0.0377197 219.492 1.23017 220.55 2.18932C221.496 3.04477 222.191 3.66692 223.666 3.66692C225.169 3.66692 225.837 3.04477 226.783 2.18932C228.174 1.23017 229.482 0.0377197 232.014 0.0377197C234.518 0.0377197 235.826 1.23017 236.883 2.18932C237.83 3.04477 238.525 3.66692 240 3.66692C241.475 3.66692 242.17 3.04477 243.117 2.18932C244.174 1.23017 245.482 0.0377197 247.986 0.0377197C250.49 0.0377197 251.798 1.23017 252.856 2.18932C253.802 3.04477 254.497 3.66692 255.972 3.66692C257.447 3.66692 258.143 3.04477 259.089 2.18932C260.174 1.23017 261.482 0.0377197 264.014 0.0377197C266.546 0.0377197 267.826 1.23017 268.883 2.18932C269.83 3.04477 270.525 3.66692 272 3.66692C273.475 3.66692 274.17 3.04477 275.117 2.18932C276.174 1.23017 277.482 0.0377197 279.986 0.0377197C282.49 0.0377197 283.798 1.23017 284.856 2.18932C285.802 3.04477 286.497 3.66692 287.972 3.66692C289.475 3.66692 290.143 3.04477 291.089 2.18932C292.146 1.23017 293.454 0.0377197 295.958 0.0377197C298.463 0.0377197 299.77 1.23017 300.828 2.18932C301.774 3.04477 302.47 3.66692 303.944 3.66692C305.419 3.66692 306.115 3.04477 307.061 2.18932C308.118 1.23017 309.426 0.0377197 311.93 0.0377197C314.435 0.0377197 315.743 1.23017 316.8 2.18932C317.746 3.04477 318.442 3.66692 319.917 3.66692V5.99998H320Z" fill="#F1F1F1"/>
</svg>
